<?xml version="1.0" standalone="no"?>
<!DOCTYPE svg PUBLIC "-//W3C//DTD SVG 20010904//EN"
 "http://www.w3.org/TR/2001/REC-SVG-20010904/DTD/svg10.dtd">
<svg version="1.0" xmlns="http://www.w3.org/2000/svg"
 width="512.000000pt" height="512.000000pt" viewBox="0 0 512.000000 512.000000"
 preserveAspectRatio="xMidYMid meet">
<metadata>
Created by potrace 1.14, written by Peter Selinger 2001-2017
</metadata>
<g transform="translate(0.000000,512.000000) scale(0.100000,-0.100000)"
fill="#000000" stroke="none">
<path d="M114 5105 c-73 -30 -122 -113 -110 -186 5 -34 47 -152 76 -214 5 -11
68 -173 140 -360 72 -187 135 -349 140 -360 5 -11 19 -47 31 -80 11 -33 27
-73 34 -90 7 -16 216 -554 465 -1195 249 -641 458 -1178 465 -1195 23 -54 135
-344 135 -351 0 -3 7 -20 15 -37 8 -18 91 -230 185 -472 94 -242 177 -450 185
-462 75 -114 253 -134 348 -39 13 13 162 250 332 526 l309 502 160 -165 c104
-108 174 -172 198 -182 76 -31 173 -10 230 51 26 29 44 81 92 264 13 52 63
238 110 412 47 174 86 324 86 332 0 8 -11 28 -25 44 l-25 30 27 101 c26 100
27 101 72 129 25 16 82 52 126 79 44 28 96 60 115 71 19 11 148 89 285 174
138 84 353 217 478 293 126 77 242 152 257 167 39 36 58 75 66 133 15 111 -53
208 -176 254 -36 13 -78 30 -95 37 -16 7 -91 36 -165 64 -145 55 -178 68 -397
154 -78 31 -144 56 -147 56 -4 0 -25 8 -49 19 -23 10 -80 33 -127 51 -47 17
-94 36 -105 40 -11 5 -101 40 -200 79 -99 38 -245 95 -325 126 -80 31 -354
138 -610 237 -256 99 -478 186 -495 193 -16 7 -46 18 -65 25 -19 7 -44 16 -55
21 -11 5 -45 18 -75 29 -30 11 -64 25 -75 30 -40 18 -231 89 -258 96 -21 5
-36 1 -57 -15 -16 -11 -33 -21 -37 -21 -4 0 -45 15 -90 33 -73 28 -83 35 -83
57 -1 41 -30 65 -120 100 -47 18 -98 39 -115 45 -28 12 -142 56 -405 157 -58
22 -114 44 -125 49 -124 55 -449 173 -480 175 -23 1 -54 -4 -71 -11z"/>
</g>
</svg>
